<svg xmlns="http://www.w3.org/2000/svg" xmlns:xlink="http://www.w3.org/1999/xlink" width="108" height="326" viewBox="0 0 108 326">
  <defs>
    <style>
      .cls-1 {
        fill: none;
      }

      .cls-2 {
        clip-path: url(#clip-path);
      }

      .cls-3 {
        fill: #010626;
      }
      .lime-blue{
        fill: #65E1E1;
      }
      .light-green{
        fill: #90F397;
      }
      .light-yellow{
        fill: #F3E990;
      }
    </style>
    <clipPath id="clip-path">
      <rect class="cls-1" width="108" height="326"/>
    </clipPath>
  </defs>
  <g id="Repetir_cuadrícula_10" data-name="Repetir cuadrícula 10" class="cls-2">
    <g transform="translate(-986 -103)">
      <circle id="Elipse_4" data-name="Elipse 4" class="cls-3" cx="4" cy="4" r="4" transform="translate(986 103)"/>
    </g>
    <g transform="translate(-962 -103)">
      <circle id="Elipse_4-2" data-name="Elipse 4" class="cls-3" cx="4" cy="4" r="4" transform="translate(986 103)"/>
    </g>
    <g transform="translate(-938 -103)">
      <circle id="Elipse_4-3" data-name="Elipse 4" class="cls-3" cx="4" cy="4" r="4" transform="translate(986 103)"/>
    </g>
    <g transform="translate(-914 -103)">
      <circle id="Elipse_4-4" data-name="Elipse 4" class="cls-3" cx="4" cy="4" r="4" transform="translate(986 103)"/>
    </g>
    <g transform="translate(-890 -103)">
      <circle id="Elipse_4-5" data-name="Elipse 4" class="cls-3" cx="4" cy="4" r="4" transform="translate(986 103)"/>
    </g>
    <g transform="translate(-986 -75)">
      <circle id="Elipse_4-6" data-name="Elipse 4" class="cls-3" cx="4" cy="4" r="4" transform="translate(986 103)"/>
    </g>
    <g transform="translate(-962 -75)">
      <circle id="Elipse_4-7" data-name="Elipse 4" class="cls-3" cx="4" cy="4" r="4" transform="translate(986 103)"/>
    </g>
    
    <g transform="translate(-986 -47)">
      <circle id="Elipse_4-11" data-name="Elipse 4" class="cls-3" cx="4" cy="4" r="4" transform="translate(986 103)"/>
    </g>
    <g transform="translate(-962 -47)">
      <circle id="Elipse_4-12" data-name="Elipse 4" class="cls-3" cx="4" cy="4" r="4" transform="translate(986 103)"/>
    </g>
    <g transform="translate(-938 -47)">
      <circle id="Elipse_4-13" data-name="Elipse 4" class="cls-3" cx="4" cy="4" r="4" transform="translate(986 103)"/>
    </g>
    <g transform="translate(-914 -47)">
      <circle id="Elipse_4-14" data-name="Elipse 4" class="cls-3" cx="4" cy="4" r="4" transform="translate(986 103)"/>
    </g>
    <g transform="translate(-890 -47)">
      <circle id="Elipse_4-15" data-name="Elipse 4" class="cls-3" cx="4" cy="4" r="4" transform="translate(986 103)"/>
    </g>
    <g transform="translate(-986 -19)">
      <circle id="Elipse_4-16" data-name="Elipse 4" class="cls-3 light-yellow" cx="4" cy="4" r="4" transform="translate(986 103)"/>
    </g>
    <g transform="translate(-962 -19)">
      <circle id="Elipse_4-17" data-name="Elipse 4" class="cls-3 light-yellow" cx="4" cy="4" r="4" transform="translate(986 103)"/>
    </g>
    <g transform="translate(-938 -19)">
      <circle id="Elipse_4-18" data-name="Elipse 4" class="cls-3 light-yellow" cx="4" cy="4" r="4" transform="translate(986 103)"/>
    </g>
    <g transform="translate(-986 9)">
      <circle id="Elipse_4-21" data-name="Elipse 4" class="cls-3" cx="4" cy="4" r="4" transform="translate(986 103)"/>
    </g>
    <g transform="translate(-962 9)">
      <circle id="Elipse_4-22" data-name="Elipse 4" class="cls-3" cx="4" cy="4" r="4" transform="translate(986 103)"/>
    </g>
    <g transform="translate(-938 9)">
      <circle id="Elipse_4-23" data-name="Elipse 4" class="cls-3" cx="4" cy="4" r="4" transform="translate(986 103)"/>
    </g>
    <g transform="translate(-914 9)">
      <circle id="Elipse_4-24" data-name="Elipse 4" class="cls-3" cx="4" cy="4" r="4" transform="translate(986 103)"/>
    </g>
    <g transform="translate(-890 9)">
      <circle id="Elipse_4-25" data-name="Elipse 4" class="cls-3" cx="4" cy="4" r="4" transform="translate(986 103)"/>
    </g>
    <g transform="translate(-986 37)">
      <circle id="Elipse_4-26" data-name="Elipse 4" class="cls-3 light-green" cx="4" cy="4" r="4" transform="translate(986 103)"/>
    </g>
    <g transform="translate(-962 37)">
      <circle id="Elipse_4-27" data-name="Elipse 4" class="cls-3 light-green" cx="4" cy="4" r="4" transform="translate(986 103)"/>
    </g>
    <g transform="translate(-938 37)">
      <circle id="Elipse_4-28" data-name="Elipse 4" class="cls-3 light-green" cx="4" cy="4" r="4" transform="translate(986 103)"/>
    </g>
    
    <g transform="translate(-986 65)">
      <circle id="Elipse_4-31" data-name="Elipse 4" class="cls-3" cx="4" cy="4" r="4" transform="translate(986 103)"/>
    </g>
    <g transform="translate(-962 65)">
      <circle id="Elipse_4-32" data-name="Elipse 4" class="cls-3" cx="4" cy="4" r="4" transform="translate(986 103)"/>
    </g>
    <g transform="translate(-938 65)">
      <circle id="Elipse_4-33" data-name="Elipse 4" class="cls-3" cx="4" cy="4" r="4" transform="translate(986 103)"/>
    </g>
    <g transform="translate(-914 65)">
      <circle id="Elipse_4-34" data-name="Elipse 4" class="cls-3" cx="4" cy="4" r="4" transform="translate(986 103)"/>
    </g>
    <g transform="translate(-890 65)">
      <circle id="Elipse_4-35" data-name="Elipse 4" class="cls-3" cx="4" cy="4" r="4" transform="translate(986 103)"/>
    </g>
    <g transform="translate(-986 93)">
      <circle id="Elipse_4-36" data-name="Elipse 4" class="cls-3 lime-blue" cx="4" cy="4" r="4" transform="translate(986 103)"/>
    </g>
    <g transform="translate(-962 93)">
      <circle id="Elipse_4-37" data-name="Elipse 4" class="cls-3 lime-blue" cx="4" cy="4" r="4" transform="translate(986 103)"/>
    </g>
    <g transform="translate(-938 93)">
      <circle id="Elipse_4-38" data-name="Elipse 4" class="cls-3 lime-blue" cx="4" cy="4" r="4" transform="translate(986 103)"/>
    </g>
    
    <g transform="translate(-986 121)">
      <circle id="Elipse_4-41" data-name="Elipse 4" class="cls-3" cx="4" cy="4" r="4" transform="translate(986 103)"/>
    </g>
    <g transform="translate(-962 121)">
      <circle id="Elipse_4-42" data-name="Elipse 4" class="cls-3" cx="4" cy="4" r="4" transform="translate(986 103)"/>
    </g>
    <g transform="translate(-938 121)">
      <circle id="Elipse_4-43" data-name="Elipse 4" class="cls-3" cx="4" cy="4" r="4" transform="translate(986 103)"/>
    </g>
    <g transform="translate(-914 121)">
      <circle id="Elipse_4-44" data-name="Elipse 4" class="cls-3" cx="4" cy="4" r="4" transform="translate(986 103)"/>
    </g>
    <g transform="translate(-890 121)">
      <circle id="Elipse_4-45" data-name="Elipse 4" class="cls-3" cx="4" cy="4" r="4" transform="translate(986 103)"/>
    </g>
    <g transform="translate(-986 149)">
      <circle id="Elipse_4-46" data-name="Elipse 4" class="cls-3" cx="4" cy="4" r="4" transform="translate(986 103)"/>
    </g>
    <g transform="translate(-962 149)">
      <circle id="Elipse_4-47" data-name="Elipse 4" class="cls-3" cx="4" cy="4" r="4" transform="translate(986 103)"/>
    </g>
    <g transform="translate(-938 149)">
      <circle id="Elipse_4-48" data-name="Elipse 4" class="cls-3" cx="4" cy="4" r="4" transform="translate(986 103)"/>
    </g>
    <g transform="translate(-914 149)">
      <circle id="Elipse_4-49" data-name="Elipse 4" class="cls-3" cx="4" cy="4" r="4" transform="translate(986 103)"/>
    </g>
    <g transform="translate(-890 149)">
      <circle id="Elipse_4-50" data-name="Elipse 4" class="cls-3" cx="4" cy="4" r="4" transform="translate(986 103)"/>
    </g>
  </g>
</svg>
